<svg width="23" height="24" viewBox="0 0 23 24" fill="none" xmlns="http://www.w3.org/2000/svg">
<path fill-rule="evenodd" clip-rule="evenodd" d="M11.5048 0C14.4232 0 16.8028 2.40345 16.8346 5.36868L17.0931 5.36991C20.3509 5.36991 23 8.06392 23 11.3759V17.9952C23 21.306 20.3509 24 17.0931 24H5.90687C2.65031 24 0 21.306 0 17.9952V11.3759C0 8.06392 2.65031 5.36991 5.90687 5.36991L6.14749 5.36883L6.15497 5.13545C6.22904 3.77409 6.78013 2.52521 7.72576 1.57321C8.73776 0.552003 10.0965 0.0420002 11.5048 0ZM17.0931 7.16992L16.8348 7.16884L16.8349 9.06725C16.8349 9.56405 16.4386 9.96725 15.9503 9.96725C15.462 9.96725 15.0657 9.56405 15.0657 9.06725L15.0656 7.16884H7.91554L7.91566 9.06725C7.91566 9.56405 7.51935 9.96725 7.03104 9.96725C6.54273 9.96725 6.14643 9.56405 6.14643 9.06725L6.14631 7.16884L5.90687 7.16992C3.62574 7.16992 1.76923 9.05633 1.76923 11.3759V17.9952C1.76923 20.3136 3.62574 22.2 5.90687 22.2H17.0931C19.3743 22.2 21.2308 20.3136 21.2308 17.9952V11.3759C21.2308 9.05633 19.3743 7.16992 17.0931 7.16992ZM11.5013 1.80001C10.5447 1.83361 9.64832 2.16961 8.9713 2.85121C8.3041 3.52411 7.93014 4.41611 7.91604 5.36871L15.0632 5.36883L15.0596 5.21598C14.9511 3.31418 13.3973 1.80001 11.5013 1.80001Z" fill="black"/>
</svg>
