<svg width="37" height="34" viewBox="0 0 37 34" fill="none" xmlns="http://www.w3.org/2000/svg">
<path d="M9.14717 28.7453C10.5556 28.7453 11.7009 29.925 11.7009 31.3735C11.7009 32.8221 10.5556 34 9.14717 34C7.73876 34 6.59179 32.8221 6.59179 31.3735C6.59179 29.925 7.73876 28.7453 9.14717 28.7453ZM28.1262 28.7453C29.5346 28.7453 30.6816 29.925 30.6816 31.3735C30.6816 32.8221 29.5346 34 28.1262 34C26.7178 34 25.5725 32.8221 25.5725 31.3735C25.5725 29.925 26.7178 28.7453 28.1262 28.7453ZM1.30799 0.000543798L1.48085 0.0172562L4.99092 0.643514C5.55766 0.744132 5.98777 1.22814 6.035 1.81797L7.65932 21.7194C7.7369 22.6736 8.49762 23.3935 9.43037 23.3935H27.8342C28.7113 23.3935 29.4669 22.7204 29.5935 21.8287L31.1942 10.4503C31.2515 10.0478 31.0727 9.76503 30.9614 9.63145C30.8501 9.4996 30.6038 9.27755 30.2074 9.27755H12.0836C11.3853 9.27755 10.8185 8.69466 10.8185 7.97646C10.8185 7.25826 11.3853 6.67537 12.0836 6.67537H30.2074C31.2313 6.67537 32.2045 7.13335 32.8741 7.92962C33.5438 8.72589 33.8457 9.7789 33.6989 10.8232L32.0965 22.2017C31.7929 24.365 29.9612 25.9957 27.8342 25.9957H9.43037C7.17185 25.9957 5.32658 24.2505 5.13767 21.9363L3.596 3.03579L1.04905 2.58301C0.360868 2.45984 -0.0996073 1.78674 0.0184632 1.07895C0.136534 0.369418 0.784235 -0.0972398 1.48085 0.0172562L1.30799 0.000543798ZM25.1307 13.0882C25.829 13.0882 26.3958 13.6711 26.3958 14.3893C26.3958 15.1075 25.829 15.6904 25.1307 15.6904H20.4534C19.7535 15.6904 19.1884 15.1075 19.1884 14.3893C19.1884 13.6711 19.7535 13.0882 20.4534 13.0882H25.1307Z" fill="#1D242B"/>
<ellipse cx="32.1029" cy="7.12909" rx="4.89706" ry="4.93548" fill="#FF0202"/>
</svg>
