<svg width="34" height="36" viewBox="0 0 34 36" fill="none" xmlns="http://www.w3.org/2000/svg">
<path d="M1.56238 9.29403C1.92792 9.22282 2.30727 9.29765 2.61647 9.50198C3.22726 9.90994 3.40436 10.7171 3.01886 11.336L2.91773 11.536C2.53554 12.4164 2.87692 13.4578 3.74317 13.9447C4.44407 14.3665 5.02099 14.9605 5.41712 15.668C6.65064 17.8937 5.88511 20.6787 3.67879 21.9921C2.7459 22.5164 2.42175 23.6839 2.95448 24.6008L4.06509 26.4822C4.31779 26.9306 4.74574 27.2582 5.25005 27.3895C5.75435 27.5208 6.29137 27.4444 6.73697 27.1779C7.45547 26.7685 8.27245 26.5556 9.10304 26.5613C11.7699 26.5613 13.9318 28.6848 13.9318 31.3043C13.9406 32.3634 14.8172 33.2174 15.8954 33.2174L15.8793 33.249C16.3796 33.249 16.8419 33.5112 17.0921 33.9368C17.3422 34.3623 17.3422 34.8867 17.0921 35.3123C16.8419 35.7378 16.3796 36 15.8793 36C13.2125 36 11.0506 33.8764 11.0506 31.2569C11.055 30.9235 10.9659 30.5953 10.7931 30.3083C10.253 29.39 9.0595 29.0721 8.1212 29.5968L7.83515 29.7381C5.62165 30.7434 2.96433 29.9662 1.68292 27.8893L0.588412 26.0079C-0.6451 23.7822 0.120426 20.9972 2.32675 19.6838C2.61918 19.5148 2.86292 19.2754 3.03496 18.9881C3.35777 18.5462 3.47378 17.9901 3.35397 17.4591C3.23417 16.928 2.88989 16.4722 2.40723 16.2055L2.13898 16.0338C0.140581 14.661 -0.513225 12.0144 0.668891 9.88142L0.805978 9.71014C1.00567 9.49769 1.26995 9.35101 1.56238 9.29403ZM30.424 13.8635C31.0584 13.6398 31.7805 13.8824 32.136 14.4664C32.5295 15.1172 32.3137 15.958 31.6531 16.3478C31.3607 16.5168 31.117 16.7562 30.9449 17.0435C30.6826 17.4833 30.6099 18.0078 30.7429 18.5005C30.8758 18.9933 31.2035 19.4135 31.6531 19.668C33.9308 21.009 34.6786 23.9049 33.3271 26.1502L32.2326 28.0316L32.0578 28.2951C30.6602 30.2581 27.9658 30.9003 25.7943 29.7391C25.1922 29.3821 24.44 29.3747 23.8308 29.72C23.2216 30.0652 22.8516 30.7085 22.8649 31.3992C22.7878 32.1062 22.1804 32.6424 21.4565 32.6424C20.7326 32.6424 20.1252 32.1062 20.0481 31.3992C20.0827 29.7416 20.996 28.222 22.4568 27.3914C23.9177 26.5608 25.714 26.5398 27.1946 27.336C27.6395 27.5988 28.1739 27.6729 28.6754 27.5415C29.1761 27.4036 29.6029 27.0806 29.8665 26.6403L30.961 24.7589C31.2226 24.3215 31.2949 23.7994 31.1618 23.3092C31.0287 22.819 30.7014 22.4016 30.2528 22.1502C29.4985 21.6987 28.8902 21.0463 28.4984 20.2688C27.2649 18.0431 28.0304 15.2581 30.2367 13.9447L30.424 13.8635ZM16.9899 12.0632C18.5935 12.059 20.1329 12.6818 21.2684 13.7942C22.4038 14.9065 23.0419 16.4169 23.0419 17.9921L23.0319 18.3511C22.8994 20.612 21.465 22.6167 19.3171 23.4955C17.0562 24.4206 14.4505 23.9159 12.7163 22.217C10.9821 20.5181 10.4613 17.96 11.3971 15.7366C12.3329 13.5133 14.5407 12.0632 16.9899 12.0632ZM16.9899 14.8458C15.2121 14.8458 13.7708 16.2615 13.7708 18.0079C13.7708 19.7543 15.2121 21.17 16.9899 21.17C18.7678 21.17 20.2091 19.7543 20.2091 18.0079L20.1984 17.7486C20.0641 16.1235 18.6789 14.8458 16.9899 14.8458ZM18.1005 0C20.7674 0 22.9293 2.12355 22.9293 4.74308C22.9249 5.0765 23.014 5.40467 23.1868 5.6917C23.4432 6.13606 23.8698 6.46128 24.3716 6.59491C24.8735 6.72855 25.4089 6.6595 25.8587 6.40316C28.1246 5.19152 30.9598 5.94347 32.297 8.11067C32.6665 8.77203 32.4393 9.60199 31.7819 9.99209C31.1139 10.3667 30.2636 10.1491 29.8665 9.50198L29.74 9.31572C29.152 8.5493 28.062 8.31662 27.1946 8.80632C25.7165 9.60133 23.9234 9.58192 22.4635 8.75511C21.0037 7.9283 20.0882 6.41371 20.0481 4.75889C20.0656 4.24066 19.8681 3.73766 19.501 3.3651C19.1338 2.99254 18.6284 2.78233 18.1005 2.78261H15.8954C15.3662 2.78245 14.8592 2.99217 14.4895 3.36422C14.1199 3.73628 13.9187 4.23916 13.9318 4.75889C13.9168 6.42272 13.0007 7.95274 11.5275 8.77405C10.0543 9.59536 8.24721 9.58356 6.78526 8.74308L6.72088 8.67984L6.56601 8.57047C6.03367 8.13802 5.89536 7.37491 6.2702 6.78261C6.67911 6.13646 7.54387 5.93826 8.20168 6.33992C8.49531 6.50822 8.82756 6.60069 9.16742 6.6087C9.68834 6.6301 10.1965 6.44713 10.58 6.10014C10.9634 5.75314 11.1907 5.27061 11.2116 4.75889C11.2017 2.1878 13.2791 0.0771148 15.8954 0H18.1005Z" fill="black"/>
</svg>
