<svg width="30" height="37" viewBox="0 0 30 37" fill="none" xmlns="http://www.w3.org/2000/svg">
<path d="M30 30.2107C30 36.2952 21.4396 37 15 37C14.3509 37 13.7113 36.9908 13.083 36.9723C12.3358 36.9538 11.7472 36.3414 11.7698 35.607C11.7906 34.8744 12.4358 34.3231 13.1604 34.3176C13.7642 34.3342 14.3774 34.3416 15 34.3416C23.1547 34.3416 27.2906 32.9523 27.2906 30.2107C27.2906 27.4431 23.1547 26.039 15 26.039C6.84528 26.039 2.70943 27.4302 2.70943 30.1737C2.70943 31.0709 3.03396 32.3714 5.85094 33.3075C6.56038 33.5424 6.93962 34.2954 6.7 34.9891C6.45849 35.6828 5.69245 36.0621 4.98113 35.8216C0.864151 34.4545 0 31.9959 0 30.1737C0 24.2115 8.21454 23.4135 14.6032 23.3834L15.7141 23.3838C19.9746 23.4052 30 23.7764 30 30.2107ZM15 0C20.5698 0 25.1 4.44359 25.1 9.90465C25.1 15.3639 20.5698 19.8075 15 19.8075C9.43019 19.8075 4.89811 15.3639 4.89811 9.90465C4.89811 4.44359 9.43019 0 15 0ZM15 2.65838C10.9245 2.65838 7.60943 5.90875 7.60943 9.90465C7.60943 13.8987 10.9245 17.1491 15 17.1491C19.0755 17.1491 22.3906 13.8987 22.3906 9.90465C22.3906 5.90875 19.0755 2.65838 15 2.65838Z" fill="black"/>
</svg>
