<svg width="28" height="28" viewBox="0 0 28 28" fill="none" xmlns="http://www.w3.org/2000/svg">
<path fill-rule="evenodd" clip-rule="evenodd" d="M13.4565 0C20.8764 0 26.9117 5.90222 26.9117 13.1584C26.9117 16.5818 25.5683 19.7042 23.3699 22.0475L27.6957 26.2691C28.1005 26.665 28.1019 27.3055 27.6971 27.7014C27.4953 27.9014 27.2287 28 26.9634 28C26.6995 28 26.4342 27.9014 26.2311 27.7041L21.853 23.4346C19.55 25.2383 16.6299 26.3181 13.4565 26.3181C6.03672 26.3181 0 20.4145 0 13.1584C0 5.90222 6.03672 0 13.4565 0ZM13.4565 2.02686C7.1794 2.02686 2.07257 7.01969 2.07257 13.1584C2.07257 19.2971 7.1794 24.2912 13.4565 24.2912C19.7323 24.2912 24.8391 19.2971 24.8391 13.1584C24.8391 7.01969 19.7323 2.02686 13.4565 2.02686Z" fill="#1D242B"/>
</svg>
