<svg width="19" height="24" viewBox="0 0 19 24" fill="none" xmlns="http://www.w3.org/2000/svg">
<path fill-rule="evenodd" clip-rule="evenodd" d="M19 19.5588C19 23.5398 13.5783 24 9.5012 24L9.20944 23.9997C6.61186 23.9934 0 23.8283 0 19.5347C0 15.6349 5.20383 15.1137 9.24989 15.0941L9.79295 15.0937C12.3904 15.1001 19 15.2652 19 19.5588ZM9.5012 16.9052C4.39015 16.9052 1.79924 17.7894 1.79924 19.5347C1.79924 21.2957 4.39015 22.1883 9.5012 22.1883C14.611 22.1883 17.2008 21.3041 17.2008 19.5588C17.2008 17.7978 14.611 16.9052 9.5012 16.9052ZM9.5012 0C13.0133 0 15.8693 2.87704 15.8693 6.41356C15.8693 9.95008 13.0133 12.8259 9.5012 12.8259H9.46282C5.95789 12.815 3.11869 9.93679 3.13064 6.40994C3.13064 2.87704 5.98788 0 9.5012 0ZM9.5012 1.72478C6.93308 1.72478 4.84354 3.8276 4.84354 6.41356C4.83516 8.99106 6.90909 11.0927 9.46641 11.1023L9.5012 11.9647V11.1023C12.0681 11.1023 14.1564 8.99831 14.1564 6.41356C14.1564 3.8276 12.0681 1.72478 9.5012 1.72478Z" fill="#1D242B"/>
</svg>
