<svg width="410" height="315" viewBox="0 0 410 315" fill="none" xmlns="http://www.w3.org/2000/svg">
<g clip-path="url(#clip0_227_269)">
<path d="M29.2111 290.191C37.9311 306.42 56.4381 313.388 56.4381 313.388C56.4381 313.388 60.8071 294.041 52.0871 277.811C43.3671 261.581 24.8602 254.614 24.8602 254.614C24.8602 254.614 20.4911 273.961 29.2111 290.191Z" fill="#FFA542"/>
<path d="M35.2047 284.851C50.9479 294.357 57.0111 313.238 57.0111 313.238C57.0111 313.238 37.5496 316.707 21.8064 307.201C6.0632 297.695 0 278.814 0 278.814C0 278.814 19.4616 275.345 35.2047 284.851Z" fill="#FFCE7F"/>
<path d="M390.976 13.5813H292.749V14.9896H390.976V13.5813Z" fill="#F2F2F2"/>
<path d="M320.813 0.906738H319.41V13.9334H320.813V0.906738Z" fill="#F2F2F2"/>
<path d="M363.612 0.906738H362.209V13.9334H363.612V0.906738Z" fill="#F2F2F2"/>
<path d="M421.847 183.28H323.62V184.688H421.847V183.28Z" fill="#F2F2F2"/>
<path d="M351.686 170.606H350.282V183.632H351.686V170.606Z" fill="#F2F2F2"/>
<path d="M394.483 170.606H393.08V183.632H394.483V170.606Z" fill="#F2F2F2"/>
<path d="M254.028 282.759H87.8945V281.56H252.832V223.383H101.861L94.5269 208.049L95.6046 207.53L102.613 222.184H254.028V282.759Z" fill="#2F2E41"/>
<path d="M110.006 312.147C116.937 312.147 122.555 306.508 122.555 299.552C122.555 292.596 116.937 286.957 110.006 286.957C103.075 286.957 97.4561 292.596 97.4561 299.552C97.4561 306.508 103.075 312.147 110.006 312.147Z" fill="#101010"/>
<path d="M233.71 312.147C240.641 312.147 246.259 306.508 246.259 299.552C246.259 292.596 240.641 286.957 233.71 286.957C226.779 286.957 221.16 292.596 221.16 299.552C221.16 306.508 226.779 312.147 233.71 312.147Z" fill="#101010"/>
<path d="M379.524 39.8585C383.814 39.8585 387.293 36.3678 387.293 32.0617C387.293 27.7557 383.814 24.2649 379.524 24.2649C375.233 24.2649 371.755 27.7557 371.755 32.0617C371.755 36.3678 375.233 39.8585 379.524 39.8585Z" fill="#FFA542"/>
<path d="M271.797 203.591H85.0622L44.6572 71.0457H313.408L313.163 71.8255L271.797 203.591ZM85.9463 202.392H270.92L311.778 72.2451H46.2726L85.9463 202.392Z" fill="#2F2E41"/>
<path d="M257.22 196.694H93.2041L57.7148 79.1421H293.768L293.553 79.8342L257.22 196.694Z" fill="#F2F2F2"/>
<path d="M316.756 59.2044L315.601 58.8966L323.487 29.0627H369.366V30.2626H324.407L316.756 59.2044Z" fill="#2F2E41"/>
<path d="M299.978 111.229H57.7139V112.429H299.978V111.229Z" fill="#2F2E41"/>
<path d="M286.104 155.421H71.1855V156.621H286.104V155.421Z" fill="#2F2E41"/>
<path d="M179.626 71.6455H178.431V202.992H179.626V71.6455Z" fill="#2F2E41"/>
<path d="M233.137 71.6078L224.558 202.951L225.75 203.029L234.33 71.6863L233.137 71.6078Z" fill="#2F2E41"/>
<path d="M124.945 71.6063L123.752 71.6843L132.282 203.031L133.475 202.953L124.945 71.6063Z" fill="#2F2E41"/>
<path d="M389.763 312.48H0V315H389.763V312.48Z" fill="#090909"/>
<path d="M140.498 36.8181H42.2715V38.2264H140.498V36.8181Z" fill="#F2F2F2"/>
<path d="M70.3359 24.1436H68.9326V37.1702H70.3359V24.1436Z" fill="#F2F2F2"/>
<path d="M113.135 24.1436H111.731V37.1702H113.135V24.1436Z" fill="#F2F2F2"/>
</g>
<defs>
<clipPath id="clip0_227_269">
<rect width="409.879" height="315" fill="white"/>
</clipPath>
</defs>
</svg>
