<svg id="Слой_1" data-name="Слой 1" xmlns="http://www.w3.org/2000/svg" viewBox="0 0 313.74 416.66"><defs><style>.cls-1{fill:#f4cda2;}.cls-2{fill:#e8b689;}.cls-3{fill:#efc79c;}.cls-4{fill:#4c4c4c;}.cls-5{fill:#f4f4f4;}.cls-6{fill:#e8e8e8;}.cls-7{fill:#c9c9c9;}.cls-8{fill:#a57c5b;}.cls-9{fill:#b78b6e;}.cls-10{fill:#ffcf03;}.cls-11{fill:#7a5a44;}.cls-12{fill:#ffd7e2;}.cls-13{fill:#e8bb00;}.cls-14{fill:#ffe706;}.cls-15{fill:#ff7190;}.cls-16{fill:#f35;}.cls-17{fill:#ffc5d4;}.cls-18{fill:#fff;stroke:#000;stroke-miterlimit:10;}.cls-19{fill:#e0e0e0;}.cls-20{fill:#f4cea8;}.cls-21{fill:#ffe4c7;}</style></defs><title>order</title><path class="cls-1" d="M109.73,150.07c-.58-.2-5.28-4.51-10.76-2.16s-8,17,10.76,27.6C118.15,174.14,109.73,150.07,109.73,150.07Z" transform="translate(-94.98 -3.34)"/><path class="cls-2" d="M109.73,150.07c-.42-.15-3-2.47-6.56-2.81,4,5.91,1.78,14.74-2.9,20.89a36.35,36.35,0,0,0,9.46,7.36C118.15,174.14,109.73,150.07,109.73,150.07Z" transform="translate(-94.98 -3.34)"/><path class="cls-1" d="M114.14,121.77c-.59-.2-5.29-4.51-10.77-2.16s-8,17,10.77,27.6C122.56,145.84,114.14,121.77,114.14,121.77Z" transform="translate(-94.98 -3.34)"/><path class="cls-2" d="M114.14,121.77c-.59-.2-5.29-4.51-10.77-2.16l-.45.23c3.35,5.18,1.65,10.92-1.19,15.94,2.19,3.86,6.09,7.88,12.41,11.43C122.56,145.84,114.14,121.77,114.14,121.77Z" transform="translate(-94.98 -3.34)"/><path class="cls-3" d="M385,420l-72.4-96.91s-21.71-33.62-15.88-58.24c2-8.57,1.74-17.94.15-27L227.43,173.2c-6,3.07-68.36,41.85-71.41,41.09s-28.59-1.19-36.93,7.15-4.37,21,7.94,15.88,42.41-4.06,51.62,2.78c5,3.74,12.7,5.16,23.82,29s23.83,35.74,37.33,41.3c12.84,5.29,59.86,100.35,65.29,109.62Z" transform="translate(-94.98 -3.34)"/><path class="cls-2" d="M157.29,227.49c0-3.1,1.1-5.37,4.79-6.14,17.73-2.66,39.47,3,60.44,8.47,10.09,2.33,20.19-2.33,23.3-12.42,3.88-13.2-12.43-17.09-18.64-23.3a126.9,126.9,0,0,1-11.93-13.73c-20,12-56.91,34.5-59.23,33.92-3.18-.79-28.59-1.19-36.93,7.15a17.74,17.74,0,0,0-1.43,1.61C130.27,218.55,145.84,217.93,157.29,227.49Z" transform="translate(-94.98 -3.34)"/><path class="cls-3" d="M280.83,198.14c-8.47-10.85-8.28-26.93-9.67-31.5s-2.58-45.86-4.28-50.42-10.41-24-12.19-26.41-15.49-30.18-23-23-.4,26.8,2.78,29.78c-.2,6,8.53,22,10.12,26.8-.79,7.15-6.35,34.15-6.35,37.72S229.08,173,227.88,173a1.88,1.88,0,0,0-.45.2l69.43,64.67C293.89,221,286.35,205.22,280.83,198.14Z" transform="translate(-94.98 -3.34)"/><rect class="cls-4" x="11.42" width="122.33" height="214.59" rx="11.52"/><rect class="cls-5" x="18.54" y="15.38" width="108.09" height="182.34"/><path class="cls-6" d="M165.19,56C156,51.64,126,56,126,56s.55,6.22,6.08,15.57h0c.79,3.72,6.53,6.62,13.5,6.62,7.25,0,13.16-3.13,13.56-7.07h0A37.93,37.93,0,0,0,165.19,56Z" transform="translate(-94.98 -3.34)"/><ellipse class="cls-7" cx="50.64" cy="51.93" rx="19.63" ry="10.82"/><path class="cls-8" d="M145.61,43c-10.32,0-18.69,8.3-18.69,14a6,6,0,0,0,.46,2.29c2.89,4,10,6.81,18.23,6.81s15.34-2.82,18.23-6.81A6,6,0,0,0,164.3,57C164.3,51.3,155.94,43,145.61,43Z" transform="translate(-94.98 -3.34)"/><path class="cls-9" d="M142.76,57.31c1,1.52,2.07,2.11,4.32,2.87,6,1.21,14.53-.61,16.33-6.69C161,48.41,154,43,145.61,43c-.51,0-1,0-1.52.07A13.24,13.24,0,0,0,142.76,57.31Z" transform="translate(-94.98 -3.34)"/><circle class="cls-10" cx="47.67" cy="58.57" r="1.38"/><circle class="cls-10" cx="55.77" cy="52.8" r="1.6"/><circle class="cls-10" cx="42.03" cy="49.87" r="1.44"/><circle class="cls-10" cx="45.36" cy="44.79" r="0.9"/><circle class="cls-10" cx="55.32" cy="44.59" r="2.05"/><circle class="cls-10" cx="65.41" cy="52.02" r="2.15"/><circle class="cls-10" cx="36.63" cy="53.02" r="1.71"/><circle class="cls-10" cx="62.68" cy="43.91" r="0.88"/><circle class="cls-10" cx="39.69" cy="43.44" r="1.35"/><path class="cls-6" d="M166.82,121c-9.2-4.32-39.16,0-39.16,0s.55,6.22,6.08,15.57h0c.79,3.72,6.53,6.62,13.5,6.62,7.25,0,13.16-3.13,13.56-7.07h0A37.93,37.93,0,0,0,166.82,121Z" transform="translate(-94.98 -3.34)"/><path class="cls-8" d="M147.24,94.88c-2.94-.49-18.69,21.45-18.69,27.15a6,6,0,0,0,.46,2.28c2.89,4,10,6.81,18.23,6.81s15.34-2.82,18.23-6.81a6,6,0,0,0,.46-2.28C165.93,116.33,150.78,95.47,147.24,94.88Z" transform="translate(-94.98 -3.34)"/><path class="cls-11" d="M144.16,97c-3.76,3.76-9.58,11.82-12.95,18.05C138,110.84,143.64,104.57,144.16,97Z" transform="translate(-94.98 -3.34)"/><path class="cls-11" d="M146.8,94.94a4.16,4.16,0,0,0-.85.47c1.54,11.69-7.54,20.19-17.37,26.22a2.69,2.69,0,0,0,0,.4,6,6,0,0,0,.46,2.28,12.87,12.87,0,0,0,3.82,3.33C139,123,143,116.05,146.5,109.56,148.65,105.25,150.8,98.94,146.8,94.94Z" transform="translate(-94.98 -3.34)"/><path class="cls-11" d="M155.64,103.44c-3.13-4.12-6.18-7.48-7.84-8.35,11.22,11,1.81,24.43-7.52,35.32a34.26,34.26,0,0,0,7,.71,33.9,33.9,0,0,0,4.09-.25,29.84,29.84,0,0,0,5.26-12A23.49,23.49,0,0,0,155.64,103.44Z" transform="translate(-94.98 -3.34)"/><path class="cls-11" d="M163.26,115a22.73,22.73,0,0,1-2,12.84,13.11,13.11,0,0,0,4.2-3.54,6,6,0,0,0,.46-2.28C165.93,120.52,164.88,118,163.26,115Z" transform="translate(-94.98 -3.34)"/><polygon class="cls-12" points="78.75 98.86 86.72 94.2 112.68 95.35 104.54 103.27 78.75 98.86"/><polygon class="cls-10" points="86.86 100.69 85.41 87.5 88.23 88.02 89.92 87.05 89.92 100.99 88.47 101.9 86.86 100.69"/><polygon class="cls-13" points="88.23 88.02 89.92 87.05 89.92 100.99 88.47 101.9 88.23 88.02"/><polygon class="cls-14" points="85.41 87.5 87.23 86.5 89.92 87.05 88.23 88.02 85.41 87.5"/><polygon class="cls-10" points="83.11 104.93 84.78 91.77 87.4 92.93 89.28 92.39 86.02 105.94 84.39 106.49 83.11 104.93"/><polygon class="cls-13" points="87.4 92.93 89.28 92.39 86.02 105.94 84.39 106.49 87.4 92.93"/><polygon class="cls-14" points="84.78 91.77 86.78 91.22 89.28 92.39 87.4 92.93 84.78 91.77"/><polygon class="cls-10" points="85.25 103.58 78.2 92.34 80.97 91.58 82.07 89.97 88.14 102.52 87.22 103.97 85.25 103.58"/><polygon class="cls-13" points="80.97 91.58 82.07 89.97 88.14 102.52 87.22 103.97 80.97 91.58"/><polygon class="cls-14" points="78.2 92.34 79.41 90.65 82.07 89.97 80.97 91.58 78.2 92.34"/><polygon class="cls-10" points="90.99 101.39 90.3 88.14 93.08 88.82 94.84 87.95 94.03 101.87 92.52 102.69 90.99 101.39"/><polygon class="cls-13" points="93.08 88.82 94.84 87.95 94.03 101.87 92.52 102.69 93.08 88.82"/><polygon class="cls-14" points="90.3 88.14 92.17 87.25 94.84 87.95 93.08 88.82 90.3 88.14"/><polygon class="cls-10" points="89.76 106.48 89.08 93.23 91.86 93.91 93.61 93.04 92.8 106.96 91.3 107.78 89.76 106.48"/><polygon class="cls-13" points="91.86 93.91 93.61 93.04 92.8 106.96 91.3 107.78 91.86 93.91"/><polygon class="cls-14" points="89.08 93.23 90.95 92.34 93.61 93.04 91.86 93.91 89.08 93.23"/><polygon class="cls-10" points="102.67 102.97 101.98 89.73 104.77 90.4 106.52 89.53 105.71 103.45 104.2 104.28 102.67 102.97"/><polygon class="cls-13" points="104.77 90.4 106.52 89.53 105.71 103.45 104.2 104.28 104.77 90.4"/><polygon class="cls-14" points="101.98 89.73 103.85 88.83 106.52 89.53 104.77 90.4 101.98 89.73"/><polygon class="cls-10" points="95.26 101.84 100.03 89.46 102.3 91.21 104.25 91.13 97.84 103.51 96.13 103.65 95.26 101.84"/><polygon class="cls-13" points="102.3 91.21 104.25 91.13 97.84 103.51 96.13 103.65 102.3 91.21"/><polygon class="cls-14" points="100.03 89.46 102.1 89.41 104.25 91.13 102.3 91.21 100.03 89.46"/><polygon class="cls-10" points="100.36 105.99 97.38 93.07 100.24 93.25 101.81 92.09 103.44 105.94 102.1 107.01 100.36 105.99"/><polygon class="cls-13" points="100.24 93.25 101.81 92.09 103.44 105.94 102.1 107.01 100.24 93.25"/><polygon class="cls-14" points="97.38 93.07 99.07 91.86 101.81 92.09 100.24 93.25 97.38 93.07"/><polygon class="cls-10" points="95.67 102.64 92.68 89.71 95.54 89.89 97.11 88.73 98.75 102.58 97.41 103.65 95.67 102.64"/><polygon class="cls-13" points="95.54 89.89 97.11 88.73 98.75 102.58 97.41 103.65 95.54 89.89"/><polygon class="cls-14" points="92.68 89.71 94.37 88.51 97.11 88.73 95.54 89.89 92.68 89.71"/><polygon class="cls-10" points="102.34 100.9 108.72 89.28 110.74 91.32 112.68 91.5 104.67 102.91 102.96 102.82 102.34 100.9"/><polygon class="cls-13" points="110.74 91.32 112.68 91.5 104.67 102.91 102.96 102.82 110.74 91.32"/><polygon class="cls-14" points="108.72 89.28 110.79 89.5 112.68 91.5 110.74 91.32 108.72 89.28"/><polygon class="cls-15" points="112.68 95.35 105.79 136.3 101.31 140.21 105.59 100.75 112.68 95.35"/><polygon class="cls-16" points="78.75 98.86 84.97 138.31 101.31 140.21 105.59 100.75 78.75 98.86"/><path class="cls-6" d="M209.8,62.32c-9.21-4.31-39.17,0-39.17,0s.55,6.23,6.08,15.58h0c.79,3.72,6.52,6.62,13.49,6.62,7.25,0,13.16-3.13,13.56-7.07h0A37.87,37.87,0,0,0,209.8,62.32Z" transform="translate(-94.98 -3.34)"/><path class="cls-8" d="M190.21,46.69c-2.94-.49-18.69,11-18.69,16.67a5.87,5.87,0,0,0,.47,2.29c2.89,4,10,6.8,18.22,6.8s15.34-2.81,18.23-6.8a6.05,6.05,0,0,0,.47-2.29C208.91,57.67,193.75,47.28,190.21,46.69Z" transform="translate(-94.98 -3.34)"/><path class="cls-17" d="M190.21,46.69c-2.94-.49-18.69,11-18.69,16.67a5.87,5.87,0,0,0,.47,2.29c2.89,4,10,6.8,18.22,6.8s15.34-2.81,18.23-6.8a6.05,6.05,0,0,0,.47-2.29C208.91,57.67,193.75,47.28,190.21,46.69Z" transform="translate(-94.98 -3.34)"/><path class="cls-15" d="M200.3,54.18a3.5,3.5,0,0,0,.28-1.31c-4.15-3.27-8.64-5.9-10.37-6.18s-7.24,3.16-11.89,7.24a1.82,1.82,0,0,0,.07.25c1.74,2.4,6,4.09,11,4.09S198.57,56.58,200.3,54.18Z" transform="translate(-94.98 -3.34)"/><path class="cls-15" d="M204.72,56.51a4.28,4.28,0,0,1,.45,1.75,5,5,0,0,1-.39,1.94c-2.45,3.37-8.43,5.76-15.43,5.76s-13-2.39-15.43-5.76a4.78,4.78,0,0,1-.35-1.32,8.24,8.24,0,0,0-2,4.48,5.87,5.87,0,0,0,.47,2.29c2.89,4,10,6.8,18.22,6.8s15.34-2.81,18.23-6.8a6.05,6.05,0,0,0,.47-2.29C208.91,61.43,207.16,59,204.72,56.51Z" transform="translate(-94.98 -3.34)"/><circle class="cls-16" cx="94.37" cy="42.17" r="6.19"/><rect class="cls-10" x="36.97" y="155.04" width="72.99" height="13.46" rx="3.98"/><path class="cls-18" d="M139.9,161.92a2.74,2.74,0,0,1,1.58.41,1.42,1.42,0,0,1,.58,1.24,1.71,1.71,0,0,1-.26,1,1.76,1.76,0,0,1-.72.6,2.38,2.38,0,0,1-1.07.22l-.15-.54a3.61,3.61,0,0,1,1.28.22,2.15,2.15,0,0,1,.9.63,1.39,1.39,0,0,1,.34.95,1.74,1.74,0,0,1-.19.86,1.56,1.56,0,0,1-.5.58,2.16,2.16,0,0,1-.72.33,3.16,3.16,0,0,1-.81.11h-2v-6.56Zm.17,2.79a.85.85,0,0,0,.69-.27,1,1,0,0,0,.22-.65.8.8,0,0,0-.28-.65,1.25,1.25,0,0,0-.76-.21h-.78v1.78Zm0,2.79a1.91,1.91,0,0,0,.61-.09,1,1,0,0,0,.43-.3.76.76,0,0,0,.16-.51.72.72,0,0,0-.19-.53,1.12,1.12,0,0,0-.48-.27,2.35,2.35,0,0,0-.6-.08h-.87v1.78Z" transform="translate(-94.98 -3.34)"/><path class="cls-18" d="M144.72,166.12a1.36,1.36,0,0,0,.2.71,1.65,1.65,0,0,0,.54.51,1.45,1.45,0,0,0,.75.2,1.55,1.55,0,0,0,.77-.2,1.47,1.47,0,0,0,.54-.51,1.28,1.28,0,0,0,.21-.71v-4.2h1v4.22a2.29,2.29,0,0,1-.34,1.26,2.36,2.36,0,0,1-.92.85,2.77,2.77,0,0,1-1.28.3,2.72,2.72,0,0,1-1.28-.3,2.36,2.36,0,0,1-.92-.85,2.29,2.29,0,0,1-.34-1.26v-4.22h1.05Z" transform="translate(-94.98 -3.34)"/><path class="cls-18" d="M152.17,166.34l-2.42-4.42H151l1.84,3.53-.32,0,1.83-3.55h1.28l-2.45,4.42v2.14h-1.05Z" transform="translate(-94.98 -3.34)"/><path class="cls-18" d="M157.73,166.12a1.27,1.27,0,0,0,.2.71,1.52,1.52,0,0,0,.53.51,1.48,1.48,0,0,0,.75.2,1.5,1.5,0,0,0,.77-.2,1.59,1.59,0,0,0,.55-.51,1.36,1.36,0,0,0,.2-.71v-4.2h1v4.22a2.29,2.29,0,0,1-1.27,2.11,2.72,2.72,0,0,1-1.28.3,2.74,2.74,0,0,1-1.28-.3,2.43,2.43,0,0,1-.92-.85,2.37,2.37,0,0,1-.34-1.26v-4.22h1.06Z" transform="translate(-94.98 -3.34)"/><path class="cls-18" d="M165.3,161.92a3.12,3.12,0,0,1,1,.15,2.06,2.06,0,0,1,.76.41,1.65,1.65,0,0,1,.49.65,2.13,2.13,0,0,1,.18.9,2.53,2.53,0,0,1-.12.77,2.12,2.12,0,0,1-.38.71,1.93,1.93,0,0,1-.7.5,2.58,2.58,0,0,1-1.06.19h-1v2.28h-1.05v-6.56Zm.14,3.26a1.21,1.21,0,0,0,.57-.11,1,1,0,0,0,.37-.27,1.22,1.22,0,0,0,.2-.37,1.11,1.11,0,0,0,0-.72,1.15,1.15,0,0,0-.18-.37,1.07,1.07,0,0,0-.36-.3,1.35,1.35,0,0,0-.57-.11h-1v2.25Zm1.13.64,1.68,2.66H167l-1.7-2.63Z" transform="translate(-94.98 -3.34)"/><path class="cls-18" d="M168.18,161.92h4.39v1h-1.7v5.55h-1v-5.55h-1.65Z" transform="translate(-94.98 -3.34)"/><path class="cls-18" d="M173.9,168.48v-6.79h0l3.53,5-.45-.1,3.51-4.9h0v6.79h-1v-4.42l.06.53L177.17,168h0l-2.41-3.36.18-.49v4.38Z" transform="translate(-94.98 -3.34)"/><path class="cls-18" d="M181.62,168.48l2.91-6.83h.06l2.9,6.83h-1.2l-2-5.19.76-.49-2.34,5.68Zm1.84-2.43h2.23l.36.88h-2.92Z" transform="translate(-94.98 -3.34)"/><polygon class="cls-19" points="125.94 15.38 125.94 197.02 18.54 197.02 18.54 197.72 126.63 197.72 126.63 15.38 125.94 15.38"/><path class="cls-20" d="M408.72,420C376.06,375.1,299.13,268.83,298.3,263c-1.06-7.42-2.12-40.77-20.92-57.71-12.44-11.91-27.79-51.35-33.08-54.27s-14.3-3.44-22.24,1.06-25.41,4-28.32,4-5.3,12.45,2.64,18,19,7.82,26.69,6c7.41,7.94,7.2,21.83-.22,34.8s-9,31.24-3.44,47.12,29.3,39.83,56.9,35c5.57-1,59.63,83.61,84.5,123Z" transform="translate(-94.98 -3.34)"/><path class="cls-21" d="M198.65,156.06s-5.14,2.72-5.14,6.24c5.29,3.82,13.8.59,15.42,0s3.19-5.79,6.29-7.81C208.2,154.67,198.65,156.06,198.65,156.06Z" transform="translate(-94.98 -3.34)"/></svg>