<?xml version="1.0" standalone="no"?><svg xmlns="http://www.w3.org/2000/svg" viewBox="0 0 1440 320"><path fill="#ffd700" fill-opacity="1" d="M0,288L34.3,256C68.6,224,137,160,206,144C274.3,128,343,160,411,160C480,160,549,128,617,122.7C685.7,117,754,139,823,154.7C891.4,171,960,181,1029,181.3C1097.1,181,1166,171,1234,165.3C1302.9,160,1371,160,1406,160L1440,160L1440,320L1405.7,320C1371.4,320,1303,320,1234,320C1165.7,320,1097,320,1029,320C960,320,891,320,823,320C754.3,320,686,320,617,320C548.6,320,480,320,411,320C342.9,320,274,320,206,320C137.1,320,69,320,34,320L0,320Z"></path></svg>