<svg id="Слой_1" data-name="Слой 1" xmlns="http://www.w3.org/2000/svg" viewBox="0 0 553.3 278.95"><defs><style>.cls-1{fill:#e2e2e2;}.cls-2{fill:#efc79c;}.cls-3{fill:#1d3d63;}.cls-4{fill:#f7c58d;}.cls-5{fill:#f35;}.cls-6{fill:#ff7190;}.cls-7{fill:#333;}.cls-8{fill:#ffecc5;}.cls-9{fill:#a5a5a5;}.cls-10{fill:#7f7f7f;}.cls-11{fill:#ffb206;}.cls-12{fill:#ffcf03;}.cls-13{fill:#efefef;}.cls-14{fill:#ffe10b;}.cls-15{fill:#4c4c4c;}.cls-16{fill:#efc100;}.cls-17{fill:#21457a;}.cls-18{fill:#353535;}.cls-19{fill:#ffdaae;}.cls-20{fill:#275389;}.cls-21{fill:#52a5f6;}.cls-22{fill:#67b7f9;}.cls-23{fill:#bbe0ff;}.cls-24{fill:#d2f0ff;opacity:0.49;}.cls-25{fill:#ea9c00;}</style></defs><title>delivery</title><rect class="cls-1" y="270.23" width="553.3" height="8.72" rx="4.36"/><polygon class="cls-2" points="410.19 204.58 405.21 212.65 403.57 214.96 412.38 219.72 418.33 209.92 410.19 204.58"/><path class="cls-3" d="M402.1,195.58s53.06,16.65,60.38,25.52S422,288.41,422,288.41l-10.93-6.54s15.56-38.34,29.07-45.06c2.7-4.63-24.92-7.9-48.23-9.35s-19-15.35-11.45-32.4C394.13,189.22,402.1,195.58,402.1,195.58Z" transform="translate(-3 -76.85)"/><path class="cls-4" d="M396,116.87s5.62-11.56,6.4-18.22c8.12,10.53,14.71,15.6,14.86,16.06-6.45,6.9-7.9,17.6-7.9,17.6Z" transform="translate(-3 -76.85)"/><path class="cls-5" d="M316.62,255.12h-8.81a7.56,7.56,0,0,0-6.08,3.07l-7.43,10.1a7.51,7.51,0,0,0-.3,8.5l3.67,5.78Z" transform="translate(-3 -76.85)"/><path class="cls-6" d="M293.54,271.73l7.44-10.1a7.55,7.55,0,0,1,6.08-3.07h7.18l2.38-3.45h-8.81a7.56,7.56,0,0,0-6.08,3.07l-7.43,10.1a7.42,7.42,0,0,0-1.45,4.62A7.64,7.64,0,0,1,293.54,271.73Z" transform="translate(-3 -76.85)"/><circle class="cls-7" cx="518.97" cy="241.51" r="33.08"/><circle class="cls-8" cx="518.97" cy="241.51" r="25.53"/><circle class="cls-1" cx="518.97" cy="241.51" r="19.65"/><circle class="cls-9" cx="518.97" cy="241.51" r="16.94"/><rect class="cls-1" x="511.75" y="281.21" width="7.79" height="39.47" transform="translate(-75.39 120.75) rotate(-20.3)"/><circle class="cls-7" cx="518.97" cy="241.51" r="5.1"/><circle class="cls-10" cx="518.97" cy="241.51" r="2.59"/><circle class="cls-7" cx="333.19" cy="241.26" r="33.08"/><circle class="cls-8" cx="333.19" cy="241.26" r="25.53"/><circle class="cls-1" cx="333.19" cy="241.26" r="19.65"/><circle class="cls-9" cx="333.19" cy="241.26" r="16.94"/><circle class="cls-7" cx="333.19" cy="241.26" r="5.1"/><circle class="cls-10" cx="333.19" cy="241.26" r="2.59"/><path class="cls-11" d="M495.74,295.33s27.09-13.31,55.85-5.91c-.21-15-11.69-35.23-46-27S495.74,295.33,495.74,295.33Z" transform="translate(-3 -76.85)"/><path class="cls-12" d="M503.64,264.15c-5.87,1.41-10,3.31-12.85,5.47a12.71,12.71,0,0,0-2.49,3.64,36.55,36.55,0,0,1,11.88-4.78c28.87-6.93,41.56,6.33,45,19.62,1.44.23,2.89.5,4.35.83C548.24,274.28,536.27,256.31,503.64,264.15Z" transform="translate(-3 -76.85)"/><path class="cls-13" d="M487.78,161.66s7.29,12.88.6,22.3C482.63,182.54,487.78,161.66,487.78,161.66Z" transform="translate(-3 -76.85)"/><path class="cls-11" d="M505.59,262.43l10.59-3s-9.85-29.7-35.8-74.15c-2.3,1-4.9,1.78-4.9,1.78Z" transform="translate(-3 -76.85)"/><path class="cls-11" d="M465.88,187.47s22.88,54.67,9.48,84.42c-2.63,10.14,10.16,7.39,10.16,7.39s14.65-33-15.84-94C468.26,184.44,465.88,187.47,465.88,187.47Z" transform="translate(-3 -76.85)"/><path class="cls-11" d="M422.47,235.62l-72.73-.09c-11.66,0-48.5,15.89-59.92,65.28l71.31.09c8.9,0,10.64,16,10.64,16L461,317c10.43,0,28.89-40.16,19.1-60.73-4.32,21.47-13.85,32.51-24.59,35.56-8.27,2.35-32.49,2.14-43.25,1.92a6.93,6.93,0,0,1-6.61-5.42c-1.34-6-3-15.94-1.35-24.49C406.8,250.64,421.22,248.82,422.47,235.62Z" transform="translate(-3 -76.85)"/><path class="cls-12" d="M288.28,303.57l87,.11s12.69-27.14,2.58-42.57-51.76-10.65-69.51,5S288.28,303.57,288.28,303.57Z" transform="translate(-3 -76.85)"/><path class="cls-14" d="M372.42,303.68c2.52-6.09,9.86-26.33,1.7-38.69-9.18-13.91-45.53-10.54-63.77,2.51,19.3-9.3,48.33-10.42,56.4,1.81,6.74,10.21,2.89,25.82-.07,34.36Z" transform="translate(-3 -76.85)"/><path class="cls-12" d="M369.29,307.59l72.72.1c15.88,0,47.2-24.57,40.93-62.32S467,189.65,467,189.65l11.05-3.36s21.12,41.15,25.7,53.43,11.45,45.28-13.44,68c-10.13,8.5-18,11.94-29.47,11.93l-88.38-.12Z" transform="translate(-3 -76.85)"/><path class="cls-14" d="M503.78,239.72c-4.58-12.28-25.7-53.43-25.7-53.43L474,187.55c5.08,10.57,19.72,41.5,22.93,53.23,3.45,12.65,10.79,46.55-14.09,69.3A56.27,56.27,0,0,1,469.21,319c7.39-1.4,13.63-4.91,21.13-11.2C515.23,285,508.37,252,503.78,239.72Z" transform="translate(-3 -76.85)"/><path class="cls-15" d="M443.62,310.87c15.88,0,48.22-25.67,41.94-63.43-5.66-34.08-15.39-54.53-17.23-58.18l-1.3.39s9.64,18,15.91,55.72S457.89,307.71,442,307.69l-72.72-.1.85,3.19Z" transform="translate(-3 -76.85)"/><path class="cls-15" d="M354.56,219.88s-11.53,15.64.55,15.65l67.36.09c3.3,0,7.8-12.64,1.7-13.11s-25,1.81-39.23-1.44S358.94,214.83,354.56,219.88Z" transform="translate(-3 -76.85)"/><path class="cls-12" d="M466.1,190.57s14.74-4.81,16.58-5.27,5.76-.91,5.76-.91-2.4-17.73,0-22.67c-5.18-5-12.43-3.36-20,3.77s-10.25,8.39-9.68,10.34S466.1,190.57,466.1,190.57Z" transform="translate(-3 -76.85)"/><path class="cls-9" d="M467.32,172.78l-.53-.88,10.45-6.17a3.22,3.22,0,0,0,1.5-2.11l4.11-20.17,1,.2-4.11,20.18a4.19,4.19,0,0,1-2,2.78Z" transform="translate(-3 -76.85)"/><ellipse class="cls-16" cx="467.04" cy="176.56" rx="6.36" ry="5.98" transform="translate(286.86 566.52) rotate(-89.92)"/><path class="cls-17" d="M453,171.11s6.7-.22,9.13-2.45,5.11-2.15,7.56-.09,4.36,6.16,3.31,8.45a4.62,4.62,0,0,1-5.36,2.66c.69,1.61-3.12,1.85-5,1.18s-6.34-1.81-8.11-1.43C453,177.44,453,171.11,453,171.11Z" transform="translate(-3 -76.85)"/><path class="cls-11" d="M463.6,185.79c1.38,2.66,2.5,4.78,2.5,4.78s14.74-4.81,16.58-5.27,5.76-.91,5.76-.91-.44-3.25-.75-7.35C481.86,183.18,472.63,185.26,463.6,185.79Z" transform="translate(-3 -76.85)"/><circle class="cls-18" cx="463.35" cy="98.42" r="3.34"/><ellipse class="cls-12" cx="481.26" cy="140.81" rx="9.61" ry="3.78" transform="translate(258.79 514.82) rotate(-80.35)"/><ellipse class="cls-13" cx="480.66" cy="140.71" rx="7.66" ry="2.4" transform="translate(258.39 514.14) rotate(-80.35)"/><polygon class="cls-19" points="421.9 207.11 418.2 215.85 416.94 218.38 426.37 221.74 430.75 211.15 421.9 207.11"/><path class="cls-17" d="M403,198.2s54.61,10.53,62.89,18.51S434.26,290,434.26,290l-11.6-5.26s10.12-41.63,22.79-49.84c2.15-4.91-25.66-5-49-3.83S365.49,216,371,198.16C383.94,190.81,403,198.2,403,198.2Z" transform="translate(-3 -76.85)"/><path class="cls-20" d="M434.26,290s39.85-65.25,31.58-73.24c-6.12-5.9-37.55-13.19-53.53-16.6a25.09,25.09,0,0,0-16.65,7.29c12.66-2.63,52.92,6.62,60.74,8.71s8.4,6.11,5.86,12.89c-2.46,6.56-24.18,50.62-29.92,60.08Z" transform="translate(-3 -76.85)"/><path class="cls-21" d="M370.35,202.18S365,143.53,396,116.87c7.67,3.39,13.8,12.29,16.85,20s.85,56.46-.08,60.14c-.24,1-2.59,2.09-6.15,3.14C396.54,203.09,379.42,205.82,370.35,202.18Z" transform="translate(-3 -76.85)"/><path class="cls-17" d="M395.66,203.7s11.82-5,13.54-28.51,1.43-34.47,1.43-34.47,5.5,17.49,5.79,29.42-1.57,25.12-3.88,30.8S395.66,203.7,395.66,203.7Z" transform="translate(-3 -76.85)"/><path class="cls-22" d="M398.41,144.76c1.72,10.33,7.43,35.29,12.08,40.1,7.68,7.95,44.65-2.51,44.65-2.51l-1.21-11.23c-11.5-.17-27.16-.2-29.61-1.28s-7.37-25.35-8.74-30.42-5.25-8.15-11.69-7.85S397.81,141.11,398.41,144.76Z" transform="translate(-3 -76.85)"/><path class="cls-17" d="M373.34,204.09s-.88-33.76,5.12-47c10.15-16.93,18.22-24.73,23.17-26.27a11.08,11.08,0,0,1,9.09,1.43,15.31,15.31,0,0,0-2.58-4.3c-1.37-1.28-7.2-2.71-12.38,1.08s-18.92,20.31-21.53,26.62c-3.66,8.85-4.22,17.48-4.39,47.4C370.63,204.66,373.34,204.09,373.34,204.09Z" transform="translate(-3 -76.85)"/><path d="M421.21,292.7s1.91,4.9,8.66,4.67c4.44,4,15.83,4.11,19.82,4s2.61,4.6-3.07,6.13-29.46.19-31.92.19S416,295.53,421.21,292.7Z" transform="translate(-3 -76.85)"/><path class="cls-4" d="M429.51,106.52c.48-1.52-2.18-4.43,0-9s-3.79-8.58-3.79-8.58l-.32.45c-2.71-4.47-7-7.36-11.77-7.37-8.21,0-14.87,8.38-14.89,18.74s6.64,18.43,14.84,18.44c.23,0,.44.3.66.29,3.25,2.13,7.72.21,8.28-1.27.69-1.84,1.12-2.93,2.25-2.93s.83-1.44,0-2.16c.61.21,1.84.09,1.64-.34s.2-1.35.51-3.7C429.88,110.33,430.37,107.33,429.51,106.52Z" transform="translate(-3 -76.85)"/><path class="cls-18" d="M396.94,109l.35,5.12s8.67,2.6,11.21-2.54S396.94,109,396.94,109Z" transform="translate(-3 -76.85)"/><path class="cls-18" d="M422.8,99s3.88-1.22,5.22,0c.15.42-.29,1-1,.8S423.93,99.13,422.8,99Z" transform="translate(-3 -76.85)"/><path class="cls-23" d="M429.78,104.45c-1.19-.06-8.31,0-10.93,0v0l-4.66-1.5-.28.87,4.05,1.31c.19,2.87-2.22,6.23-3.35,7.64l-2.15-3-.75.54,2.36,3.31c.2.76,1.42,4.5,6.62,6.85C427.07,118.14,431.61,108.13,429.78,104.45Z" transform="translate(-3 -76.85)"/><path class="cls-18" d="M421.78,95.66c.49.07,7.28.81,9.73,4.19,2-1.7-.76-4.53-.76-4.53Z" transform="translate(-3 -76.85)"/><path class="cls-12" d="M418.46,95.59s12.9,1.6,16.81,3.1c2.2-9.78-4.58-18-15.28-21s-21.94,2.11-25.64,12.12-1.28,14.51,1.13,18.26c1.95,3,5,5.25,13.65,4.73,5.7-.33,5.72-8.52,6.52-11.55S416.72,95.17,418.46,95.59Z" transform="translate(-3 -76.85)"/><path class="cls-14" d="M419.81,77.7a22,22,0,0,0-18.62,3,22.45,22.45,0,0,1,13.38-.37c9.24,2.58,15.56,9,15.7,17.05a32.17,32.17,0,0,1,4.85,1.23C437.3,88.88,430.51,80.69,419.81,77.7Z" transform="translate(-3 -76.85)"/><path class="cls-18" d="M417.15,94.22c-1.73-.42-2,2.57-2.81,5.67s-.82,11.22-6.51,11.56c-6.31.37-9.64-.7-11.73-2.49,2,2.57,5.23,4.33,13,3.86,5.7-.33,5.72-8.52,6.52-11.55s1.07-6.1,2.81-5.68c0,0,12.9,1.6,16.81,3.1a14.23,14.23,0,0,0,.3-1.79C431.52,95.42,417.15,94.22,417.15,94.22Z" transform="translate(-3 -76.85)"/><path class="cls-24" d="M436.46,95.18a40.93,40.93,0,0,1-11.25,27.16c-3.47,1.7-15.5-2.8-13.71-14.79,1.26-8.48,0-14.66,2.58-16S428.79,95.4,436.46,95.18Z" transform="translate(-3 -76.85)"/><path class="cls-15" d="M377.91,241.78l-34.2-.05a7,7,0,0,1-6-3.39l-4.18-7a2.37,2.37,0,0,0-2-1.15l-56.73-.07a2.31,2.31,0,0,1,0-4.61l56.73.08a7,7,0,0,1,6,3.39l4.18,7a2.36,2.36,0,0,0,2,1.15l34.21.05a2.3,2.3,0,1,1,0,4.6Z" transform="translate(-3 -76.85)"/><rect class="cls-11" x="265.28" y="153.54" width="77.57" height="72.04" rx="6.14" transform="translate(-2.75 -77.25) rotate(0.08)"/><path class="cls-25" d="M342.87,170.92l0-11.2a6.13,6.13,0,0,0-6.13-6.14l-65.3-.09a6.13,6.13,0,0,0-6.14,6.13l0,11.2Z" transform="translate(-3 -76.85)"/><path class="cls-12" d="M344.25,168v-8.26a6.36,6.36,0,0,0-6.35-6.36l-67.6-.09a6.35,6.35,0,0,0-6.36,6.35v8.26Z" transform="translate(-3 -76.85)"/></svg>