<svg width="24" height="24" viewBox="0 0 24 24" fill="none" xmlns="http://www.w3.org/2000/svg">
<g clip-path="url(#clip0_4_6038)">
<path d="M9.95156 0.482813C7.89844 0.778125 5.91094 1.6125 4.22344 3.00469L7.85156 6.63281C9.15469 4.95469 9.88125 2.82656 9.95156 0.482813ZM11.625 10.4062L19.0266 3.00469C17.0391 1.36406 14.6391 0.496875 12.2062 0.375C12.15 3.37031 11.1984 6.10781 9.45469 8.23594L11.625 10.4062ZM2.62969 4.59844C1.2375 6.28594 0.403125 8.27344 0.107812 10.3266C2.45156 10.2563 4.58437 9.52969 6.25781 8.22656L2.62969 4.59844ZM15.3891 14.1703C17.5125 12.4312 20.25 11.4797 23.25 11.4188C23.1281 8.98594 22.2609 6.58594 20.6203 4.59844L13.2188 12L15.3891 14.1703ZM11.625 13.5938L4.22344 20.9953C6.21094 22.6313 8.61094 23.5031 11.0438 23.625C11.1047 20.625 12.0562 17.8875 13.7953 15.7641L11.625 13.5938ZM20.6203 19.4016C22.0125 17.7141 22.8469 15.7266 23.1422 13.6734C20.7938 13.7484 18.6656 14.475 16.9922 15.7734L20.6203 19.4016ZM7.86094 9.82969C5.73281 11.5734 2.99531 12.5297 0 12.5812C0.121875 15.0141 0.989062 17.4141 2.62969 19.4016L10.0312 12L7.86094 9.82969ZM13.2984 23.5172C15.3516 23.2219 17.3391 22.3875 19.0266 20.9953L15.3984 17.3672C14.1 19.0406 13.3734 21.1734 13.2984 23.5172Z" fill="black"/>
</g>
<defs>
<clipPath id="clip0_4_6038">
<rect width="24" height="24" fill="white"/>
</clipPath>
</defs>
</svg>
