<svg width="24" height="24" viewBox="0 0 24 24" fill="none" xmlns="http://www.w3.org/2000/svg">
<g clip-path="url(#clip0_4_6189)">
<path d="M11.6818 7.84172L4.00032 14.1683V20.9966C4.00032 21.1734 4.07055 21.3429 4.19556 21.4679C4.32058 21.5929 4.49013 21.6632 4.66693 21.6632L9.33574 21.6511C9.51196 21.6502 9.68066 21.5796 9.80495 21.4547C9.92925 21.3298 9.99902 21.1607 9.99902 20.9845V16.9969C9.99902 16.8201 10.0693 16.6505 10.1943 16.5255C10.3193 16.4005 10.4888 16.3302 10.6656 16.3302H13.3321C13.5089 16.3302 13.6785 16.4005 13.8035 16.5255C13.9285 16.6505 13.9987 16.8201 13.9987 16.9969V20.9816C13.9984 21.0693 14.0155 21.1562 14.0489 21.2373C14.0822 21.3184 14.1313 21.3922 14.1932 21.4543C14.2552 21.5164 14.3287 21.5657 14.4097 21.5993C14.4908 21.633 14.5776 21.6503 14.6653 21.6503L19.3325 21.6632C19.5093 21.6632 19.6788 21.5929 19.8038 21.4679C19.9289 21.3429 19.9991 21.1734 19.9991 20.9966V14.1637L12.3193 7.84172C12.229 7.76894 12.1165 7.72926 12.0005 7.72926C11.8846 7.72926 11.7721 7.76894 11.6818 7.84172ZM23.8155 12.1418L20.3324 9.27078V3.49996C20.3324 3.36736 20.2797 3.2402 20.186 3.14644C20.0922 3.05267 19.965 3 19.8324 3H17.4993C17.3667 3 17.2395 3.05267 17.1458 3.14644C17.052 3.2402 16.9993 3.36736 16.9993 3.49996V6.52515L13.2692 3.45622C12.9112 3.16165 12.462 3.00059 11.9985 3.00059C11.5349 3.00059 11.0857 3.16165 10.7277 3.45622L0.181444 12.1418C0.130818 12.1837 0.0889323 12.2351 0.0581813 12.2931C0.0274303 12.3511 0.00841634 12.4147 0.00222573 12.4801C-0.00396488 12.5454 0.00278923 12.6114 0.0221021 12.6742C0.0414151 12.737 0.0729083 12.7953 0.114782 12.8459L1.1772 14.1375C1.21896 14.1883 1.27033 14.2303 1.32835 14.2612C1.38638 14.2921 1.44994 14.3113 1.51538 14.3176C1.58082 14.3239 1.64686 14.3172 1.70973 14.298C1.77259 14.2787 1.83104 14.2473 1.88173 14.2054L11.6818 6.13351C11.7721 6.06074 11.8846 6.02105 12.0005 6.02105C12.1165 6.02105 12.229 6.06074 12.3193 6.13351L22.1198 14.2054C22.1704 14.2473 22.2287 14.2788 22.2915 14.2981C22.3543 14.3174 22.4202 14.3242 22.4856 14.318C22.551 14.3118 22.6145 14.2928 22.6726 14.262C22.7306 14.2313 22.782 14.1894 22.8239 14.1387L23.8863 12.8472C23.9281 12.7963 23.9595 12.7376 23.9786 12.6746C23.9976 12.6115 24.0041 12.5453 23.9975 12.4798C23.9909 12.4142 23.9714 12.3506 23.9402 12.2926C23.909 12.2346 23.8666 12.1834 23.8155 12.1418Z" fill="black"/>
</g>
<defs>
<clipPath id="clip0_4_6189">
<rect width="24" height="24" fill="white"/>
</clipPath>
</defs>
</svg>
