<svg width="357" height="234" viewBox="0 0 357 234" fill="none" xmlns="http://www.w3.org/2000/svg">
<g clip-path="url(#clip0_1_180)">
<path d="M337.3 225.4H24.1C19.9 225.4 16.5 222 16.5 217.8V7.6C16.5 3.4 19.9 0 24.1 0H337.3C341.5 0 344.9 3.4 344.9 7.6V217.7C345 222 341.5 225.4 337.3 225.4Z" fill="#00D5E4"/>
<path d="M326.2 217.8H35.2C31 217.8 27.6 214.4 27.6 210.2V15.3C27.6 11.1 31 7.69995 35.2 7.69995H326.2C330.4 7.69995 333.8 11.1 333.8 15.3V210.2C333.9 214.3 330.4 217.8 326.2 217.8Z" fill="#065090"/>
<path d="M115.6 28.8999H75.4V33.3999H115.6V28.8999Z" fill="#FCFDFD"/>
<path d="M101 38.8999H75.4V43.3999H101V38.8999Z" fill="#FCFDFD"/>
<path d="M218.5 38.8999H115.4V43.3999H218.5V38.8999Z" fill="#FCFDFD"/>
<path d="M282.5 38.8999H228.5V43.3999H282.5V38.8999Z" fill="#FF6452"/>
<path d="M150.5 48.8999H85.4V53.3999H150.5V48.8999Z" fill="#00D050"/>
<path d="M267.5 48.8999H170.5V53.3999H267.5V48.8999Z" fill="#FCFDFD"/>
<path d="M167 58.8999H75.4V63.3999H167V58.8999Z" fill="#FF6452"/>
<path d="M240.5 58.8999H175.4V63.3999H240.5V58.8999Z" fill="#00D5E4"/>
<path d="M150.5 68.8999H85.4V73.3999H150.5V68.8999Z" fill="#FCFDFD"/>
<path d="M170.5 78.8999H75.4V83.3999H170.5V78.8999Z" fill="#FCFDFD"/>
<path d="M140.5 88.8999H75.4V93.3999H140.5V88.8999Z" fill="#FCFDFD"/>
<path d="M204 98.8999H95.4V103.4H204V98.8999Z" fill="#FF6452"/>
<path d="M250.5 98.8999H215.4V103.4H250.5V98.8999Z" fill="#FCFDFD"/>
<path d="M300.5 98.8999H265.4V103.4H300.5V98.8999Z" fill="#FCFDFD"/>
<path d="M149.7 108.9H105.4V113.4H149.7V108.9Z" fill="#FCFDFD"/>
<path d="M164.5 118.9H105.4V123.4H164.5V118.9Z" fill="#FF6452"/>
<path d="M250.5 118.9H185.4V123.4H250.5V118.9Z" fill="#FCFDFD"/>
<path d="M292.5 118.9H265.4V123.4H292.5V118.9Z" fill="#FF6452"/>
<path d="M115.4 128.9H75.4V133.4H115.4V128.9Z" fill="#FCFDFD"/>
<path d="M140.5 138.9H75.4V143.4H140.5V138.9Z" fill="#FCFDFD"/>
<path d="M223.5 148.9H105.4V153.4H223.5V148.9Z" fill="#FCFDFD"/>
<path d="M308.5 148.9H235.4V153.4H308.5V148.9Z" fill="#00D5E4"/>
<path d="M145.5 158.9H105.4V163.4H145.5V158.9Z" fill="#FCFDFD"/>
<path d="M195.5 158.9H155.4V163.4H195.5V158.9Z" fill="#00D050"/>
<path d="M245.5 158.9H205.4V163.4H245.5V158.9Z" fill="#FCFDFD"/>
<path d="M140.5 168.9H75.4V173.4H140.5V168.9Z" fill="#FCFDFD"/>
<path d="M160.5 178.9H95.4V183.4H160.5V178.9Z" fill="#00D050"/>
<path d="M238 178.9H172.9V183.4H238V178.9Z" fill="#00D050"/>
<path d="M208 198.9H171.5V203.4H208V198.9Z" fill="#FCFDFD"/>
<path d="M192 188.9H95.4V193.4H192V188.9Z" fill="#FCFDFD"/>
<path d="M50.3 28.8999H45.8V33.3999H50.3V28.8999Z" fill="#5E94C1"/>
<path d="M50.3 38.8999H45.8V43.3999H50.3V38.8999Z" fill="#5E94C1"/>
<path d="M50.3 48.8999H45.8V53.3999H50.3V48.8999Z" fill="#5E94C1"/>
<path d="M50.3 58.8999H45.8V63.3999H50.3V58.8999Z" fill="#5E94C1"/>
<path d="M50.3 68.8999H45.8V73.3999H50.3V68.8999Z" fill="#5E94C1"/>
<path d="M50.3 78.8999H45.8V83.3999H50.3V78.8999Z" fill="#5E94C1"/>
<path d="M50.3 88.8999H45.8V93.3999H50.3V88.8999Z" fill="#5E94C1"/>
<path d="M50.3 98.8999H45.8V103.4H50.3V98.8999Z" fill="#5E94C1"/>
<path d="M50.3 108.9H45.8V113.4H50.3V108.9Z" fill="#5E94C1"/>
<path d="M50.3 118.9H45.8V123.4H50.3V118.9Z" fill="#5E94C1"/>
<path d="M50.3 128.9H45.8V133.4H50.3V128.9Z" fill="#5E94C1"/>
<path d="M50.3 138.9H45.8V143.4H50.3V138.9Z" fill="#5E94C1"/>
<path d="M50.3 148.9H45.8V153.4H50.3V148.9Z" fill="#5E94C1"/>
<path d="M50.3 158.9H45.8V163.4H50.3V158.9Z" fill="#5E94C1"/>
<path d="M50.3 168.9H45.8V173.4H50.3V168.9Z" fill="#5E94C1"/>
<path d="M50.3 178.9H45.8V183.4H50.3V178.9Z" fill="#5E94C1"/>
<path d="M50.3 188.9H45.8V193.4H50.3V188.9Z" fill="#5E94C1"/>
<path d="M50.3 198.9H45.8V203.4H50.3V198.9Z" fill="#5E94C1"/>
<path d="M143.7 198.9H95.4V203.4H143.7V198.9Z" fill="#FCFDFD"/>
<path d="M284.7 203.3L265.7 195.2V191.9L284.7 183.8V187.3L269.6 193.5L284.7 199.7V203.3Z" fill="#FCFDFD"/>
<path d="M298.1 179L289.8 207.7H287L295.3 179H298.1Z" fill="#FCFDFD"/>
<path d="M319.3 195.2L300.3 203.3V199.8L315.4 193.6L300.3 187.4V183.9L319.3 192V195.2Z" fill="#FCFDFD"/>
<path d="M337 233.7H20C9 233.7 0 224.7 0 213.7H357C357 224.8 348 233.7 337 233.7Z" fill="#00BBD3"/>
<g opacity="0.1">
<g opacity="0.1">
<path opacity="0.1" d="M129.4 217.8L204 7.6001H175.7L101.1 217.8H129.4Z" fill="white"/>
</g>
<g opacity="0.1">
<path opacity="0.1" d="M35.3 217.8H48.6L123.2 7.6001H35.3C31.1 7.6001 27.7 11.0001 27.7 15.2001V210.1C27.6 214.3 31.1 217.8 35.3 217.8Z" fill="white"/>
</g>
<g opacity="0.1">
<path opacity="0.1" d="M287.6 217.8H326.3C330.5 217.8 333.9 214.4 333.9 210.2V87.4001L287.6 217.8Z" fill="white"/>
</g>
</g>
<g opacity="0.1">
<g opacity="0.1">
<path opacity="0.1" d="M184.3 217.8H236.2L310.8 7.6001H258.9L184.3 217.8Z" fill="white"/>
</g>
</g>
<path d="M354.3 223.7C356 220.8 357 217.3 357 213.7H0C0 217.3 1 220.8 2.7 223.7H354.3Z" fill="#15D7E2"/>
</g>
<defs>
<clipPath id="clip0_1_180">
<rect width="357" height="233.7" fill="white"/>
</clipPath>
</defs>
</svg>
