<svg width="24" height="24" viewBox="0 0 24 24" fill="none" xmlns="http://www.w3.org/2000/svg">
<g clip-path="url(#clip0_4_6554)">
<path d="M23.3152 16.9594L18.0652 14.7094C17.8409 14.6139 17.5916 14.5937 17.3549 14.6521C17.1182 14.7104 16.9068 14.844 16.7527 15.0329L14.4277 17.8735C10.7788 16.1531 7.84228 13.2166 6.12188 9.56772L8.9625 7.24272C9.15172 7.08882 9.28565 6.87746 9.34401 6.64063C9.40237 6.40381 9.38199 6.15442 9.28594 5.93022L7.03594 0.68022C6.93052 0.438536 6.74408 0.24121 6.50876 0.122266C6.27344 0.00332195 6.00399 -0.0297838 5.74687 0.028657L0.871875 1.15366C0.623986 1.2109 0.402818 1.35048 0.24447 1.5496C0.0861212 1.74873 -5.71036e-05 1.99565 2.83885e-08 2.25006C2.83885e-08 14.2735 9.74531 24.0001 21.75 24.0001C22.0045 24.0002 22.2515 23.9141 22.4507 23.7557C22.65 23.5974 22.7896 23.3762 22.8469 23.1282L23.9719 18.2532C24.0299 17.9948 23.9961 17.7243 23.8763 17.4882C23.7564 17.252 23.558 17.0651 23.3152 16.9594Z" fill="black"/>
</g>
<defs>
<clipPath id="clip0_4_6554">
<rect width="24" height="24" fill="white"/>
</clipPath>
</defs>
</svg>
