<svg width="100" height="100" viewBox="0 0 100 100" fill="none" xmlns="http://www.w3.org/2000/svg">
<g clip-path="url(#clip0_1_137)">
<path d="M86.2534 36.4207C66.1706 16.3379 33.4966 16.3379 13.4139 36.4207L0 49.8328L13.7466 63.5794C23.7872 73.62 36.9764 78.6419 50.1672 78.6419C63.3581 78.6419 76.5456 73.6217 86.5878 63.5794L100.002 50.1656L86.2534 36.4207ZM84.1976 61.1909C65.4324 79.9544 34.9003 79.9544 16.1351 61.1909L4.77703 49.8328L15.8024 38.8075C34.5676 20.044 65.0997 20.044 83.8649 38.8075L95.223 50.1656L84.1976 61.1909Z" fill="white"/>
<path d="M48.2635 36.4359C41.7432 36.4359 36.4392 41.7399 36.4392 48.2602C36.4392 49.1926 37.1959 49.9494 38.1284 49.9494C39.0608 49.9494 39.8176 49.1926 39.8176 48.2602C39.8176 43.6031 43.6064 39.8142 48.2635 39.8142C49.1959 39.8142 49.9527 39.0575 49.9527 38.125C49.9527 37.1926 49.1976 36.4359 48.2635 36.4359Z" fill="white"/>
<path d="M49.9527 27.9899C37.8446 27.9899 27.9932 37.8413 27.9932 49.9494C27.9932 62.0575 37.8446 71.9088 49.9527 71.9088C62.0608 71.9088 71.9121 62.0575 71.9121 49.9494C71.9121 37.8413 62.0625 27.9899 49.9527 27.9899ZM49.9527 68.5305C39.7078 68.5305 31.3716 60.1943 31.3716 49.9494C31.3716 39.7045 39.7078 31.3683 49.9527 31.3683C60.1976 31.3683 68.5338 39.7045 68.5338 49.9494C68.5338 60.1943 60.1993 68.5305 49.9527 68.5305Z" fill="white"/>
</g>
<defs>
<clipPath id="clip0_1_137">
<rect width="100" height="100" fill="white"/>
</clipPath>
</defs>
</svg>
