<svg width="50" height="50" viewBox="0 0 50 50" fill="none" xmlns="http://www.w3.org/2000/svg">
<rect width="50" height="50" rx="12" fill="#DEFFE5"/>
<path fill-rule="evenodd" clip-rule="evenodd" d="M32 24H18V20C18 19.449 18.449 19 19 19H20V20C20 20.55 20.45 21 21 21C21.55 21 22 20.55 22 20V19H28V20C28 20.55 28.45 21 29 21C29.55 21 30 20.55 30 20V19H31C31.551 19 32 19.449 32 20V24ZM29 30H25C24.45 30 24 29.55 24 29C24 28.45 24.45 28 25 28H29C29.55 28 30 28.45 30 29C30 29.55 29.55 30 29 30V30ZM21 30C20.45 30 20 29.55 20 29C20 28.45 20.45 28 21 28C21.55 28 22 28.45 22 29C22 29.55 21.55 30 21 30V30ZM31 17H30V16C30 15.45 29.55 15 29 15C28.45 15 28 15.45 28 16V17H22V16C22 15.45 21.55 15 21 15C20.45 15 20 15.45 20 16V17H19C17.346 17 16 18.346 16 20V32C16 33.654 17.346 35 19 35H31C32.654 35 34 33.654 34 32V20C34 18.346 32.654 17 31 17V17Z" fill="#50D86A"/>
<mask id="mask0_424_401" style="mask-type:alpha" maskUnits="userSpaceOnUse" x="16" y="15" width="18" height="20">
<path fill-rule="evenodd" clip-rule="evenodd" d="M32 24H18V20C18 19.449 18.449 19 19 19H20V20C20 20.55 20.45 21 21 21C21.55 21 22 20.55 22 20V19H28V20C28 20.55 28.45 21 29 21C29.55 21 30 20.55 30 20V19H31C31.551 19 32 19.449 32 20V24ZM29 30H25C24.45 30 24 29.55 24 29C24 28.45 24.45 28 25 28H29C29.55 28 30 28.45 30 29C30 29.55 29.55 30 29 30V30ZM21 30C20.45 30 20 29.55 20 29C20 28.45 20.45 28 21 28C21.55 28 22 28.45 22 29C22 29.55 21.55 30 21 30V30ZM31 17H30V16C30 15.45 29.55 15 29 15C28.45 15 28 15.45 28 16V17H22V16C22 15.45 21.55 15 21 15C20.45 15 20 15.45 20 16V17H19C17.346 17 16 18.346 16 20V32C16 33.654 17.346 35 19 35H31C32.654 35 34 33.654 34 32V20C34 18.346 32.654 17 31 17V17Z" fill="white"/>
</mask>
<g mask="url(#mask0_424_401)">
<rect x="13" y="13" width="24" height="24" fill="#50D86A"/>
</g>
</svg>
