<svg width="50" height="50" viewBox="0 0 50 50" fill="none" xmlns="http://www.w3.org/2000/svg">
<rect width="50" height="50" rx="12" fill="#FFCECE"/>
<path fill-rule="evenodd" clip-rule="evenodd" d="M25 34V34C24.734 34 24.48 33.895 24.292 33.706L16.525 25.926C14.489 23.886 14.489 20.567 16.525 18.527C17.508 17.543 18.821 17 20.22 17C21.619 17 22.932 17.543 23.915 18.527L25 19.614L26.084 18.528C27.068 17.543 28.381 17 29.78 17C31.179 17 32.492 17.543 33.475 18.527C35.511 20.567 35.511 23.886 33.476 25.926L25.708 33.707C25.52 33.895 25.266 34 25 34" fill="#E24444"/>
<mask id="mask0_424_385" style="mask-type:alpha" maskUnits="userSpaceOnUse" x="14" y="17" width="22" height="17">
<path fill-rule="evenodd" clip-rule="evenodd" d="M25 34V34C24.734 34 24.48 33.895 24.292 33.706L16.525 25.926C14.489 23.886 14.489 20.567 16.525 18.527C17.508 17.543 18.821 17 20.22 17C21.619 17 22.932 17.543 23.915 18.527L25 19.614L26.084 18.528C27.068 17.543 28.381 17 29.78 17C31.179 17 32.492 17.543 33.475 18.527C35.511 20.567 35.511 23.886 33.476 25.926L25.708 33.707C25.52 33.895 25.266 34 25 34" fill="white"/>
</mask>
<g mask="url(#mask0_424_385)">
<rect x="13" y="13" width="24" height="24" fill="#E24444"/>
</g>
</svg>
