<svg width="50" height="50" viewBox="0 0 50 50" fill="none" xmlns="http://www.w3.org/2000/svg">
<rect width="50" height="50" rx="12" fill="#F1DEFF"/>
<path fill-rule="evenodd" clip-rule="evenodd" d="M23 24C25.206 24 27 22.206 27 20C27 17.794 25.206 16 23 16C20.794 16 19 17.794 19 20C19 22.206 20.794 24 23 24ZM34 19H33V18C33 17.45 32.55 17 32 17C31.45 17 31 17.45 31 18V19H30C29.45 19 29 19.45 29 20C29 20.55 29.45 21 30 21H31V22C31 22.55 31.45 23 32 23C32.55 23 33 22.55 33 22V21H34C34.55 21 35 20.55 35 20C35 19.45 34.55 19 34 19ZM30 33C30 33.552 29.553 34 29 34H17C16.447 34 16 33.552 16 33C16 29.14 19.141 26 23 26C26.859 26 30 29.14 30 33Z" fill="#A86CE4"/>
<mask id="mask0_424_393" style="mask-type:alpha" maskUnits="userSpaceOnUse" x="16" y="16" width="19" height="18">
<path fill-rule="evenodd" clip-rule="evenodd" d="M23 24C25.206 24 27 22.206 27 20C27 17.794 25.206 16 23 16C20.794 16 19 17.794 19 20C19 22.206 20.794 24 23 24ZM34 19H33V18C33 17.45 32.55 17 32 17C31.45 17 31 17.45 31 18V19H30C29.45 19 29 19.45 29 20C29 20.55 29.45 21 30 21H31V22C31 22.55 31.45 23 32 23C32.55 23 33 22.55 33 22V21H34C34.55 21 35 20.55 35 20C35 19.45 34.55 19 34 19ZM30 33C30 33.552 29.553 34 29 34H17C16.447 34 16 33.552 16 33C16 29.14 19.141 26 23 26C26.859 26 30 29.14 30 33Z" fill="white"/>
</mask>
<g mask="url(#mask0_424_393)">
<rect x="13" y="13" width="24" height="24" fill="#A86CE4"/>
</g>
</svg>
