<svg width="35" height="35" viewBox="0 0 35 35" fill="none" xmlns="http://www.w3.org/2000/svg">
<path d="M28.6363 29.697C28.9292 29.9899 29.4041 29.9899 29.697 29.697C29.9899 29.4041 29.9899 28.9293 29.697 28.6364L28.6363 29.697ZM23.5768 22.5162C23.2839 22.2233 22.809 22.2233 22.5161 22.5162C22.2233 22.8091 22.2233 23.2839 22.5161 23.5768L23.5768 22.5162ZM15.3125 25.5C9.6861 25.5 5.125 20.9389 5.125 15.3125H3.625C3.625 21.7673 8.85767 27 15.3125 27V25.5ZM5.125 15.3125C5.125 9.6861 9.6861 5.125 15.3125 5.125V3.625C8.85767 3.625 3.625 8.85767 3.625 15.3125H5.125ZM15.3125 5.125C20.9389 5.125 25.5 9.6861 25.5 15.3125H27C27 8.85767 21.7673 3.625 15.3125 3.625V5.125ZM25.5 15.3125C25.5 20.9389 20.9389 25.5 15.3125 25.5V27C21.7673 27 27 21.7673 27 15.3125H25.5ZM29.697 28.6364L23.5768 22.5162L22.5161 23.5768L28.6363 29.697L29.697 28.6364Z" fill="#001A72"/>
</svg>
