<svg width="50" height="50" viewBox="0 0 50 50" fill="none" xmlns="http://www.w3.org/2000/svg">
<g clip-path="url(#clip0_27230_9)">
<path d="M49.1665 0H11.6666C11.2064 0 10.8332 0.373124 10.8332 0.833332V13.3333H12.4999V1.66666H48.3332V47.4999C48.3412 47.9381 48.003 48.3052 47.5657 48.3332C47.494 48.3332 47.4223 48.3274 47.3507 48.3257C47.2032 48.3216 47.0557 48.3182 46.9107 48.3032C46.8982 48.3032 46.8865 48.3032 46.874 48.2982C44.1523 48.0007 42.0024 45.8529 41.7023 43.1316C41.7023 43.1199 41.6982 43.1074 41.6965 43.0957C41.6763 42.8977 41.6663 42.6989 41.6665 42.4999V40.8333C41.6665 40.373 41.2934 39.9999 40.8332 39.9999H12.4999V24.9999H10.8332V39.9999H4.16658C3.70638 39.9999 3.33325 40.373 3.33325 40.8333V42.4999C3.33784 46.6401 6.69304 49.9953 10.8332 49.9999H47.5832C48.9354 49.9645 50.0102 48.8526 49.9998 47.4999V0.833332C49.9998 0.373124 49.6267 0 49.1665 0ZM10.8332 48.3332C7.61314 48.3296 5.00356 45.72 4.99992 42.4999V41.6666H39.9998V42.4999C40.001 42.7747 40.0168 43.0493 40.0473 43.3224C40.0548 43.3949 40.069 43.4649 40.079 43.5366C40.1065 43.7382 40.1398 43.9391 40.184 44.1366C40.199 44.2057 40.2182 44.2741 40.2357 44.3432C40.2865 44.5441 40.344 44.7416 40.4107 44.9366C40.4298 44.9924 40.4498 45.0474 40.4707 45.1032C40.5465 45.3099 40.6323 45.5116 40.7265 45.7107C40.7465 45.7516 40.7648 45.7941 40.7848 45.8316C40.8893 46.0427 41.004 46.2479 41.129 46.4474C41.1457 46.4741 41.1607 46.5016 41.1773 46.5307C41.3132 46.7436 41.4598 46.9494 41.6165 47.1474L41.6432 47.1832C41.825 47.4117 42.0198 47.6295 42.2265 47.8357C42.406 48.0135 42.592 48.1802 42.7848 48.3357L10.8332 48.3332Z" fill="white"/>
<path d="M27.4999 23.3333C27.721 23.3333 27.9329 23.2453 28.0891 23.0891L31.4224 19.7558C31.7477 19.4303 31.7477 18.9028 31.4224 18.5774L28.0891 15.2441C27.9329 15.0879 27.721 14.9999 27.4999 14.9999H4.16666C1.86552 14.9999 0 16.8655 0 19.1666C0 21.4677 1.86552 23.3333 4.16666 23.3333H27.4999ZM27.2849 16.7966L29.6549 19.1666L27.2849 21.5366L26.6924 19.1666L27.2849 16.7966ZM6.66665 16.6666H25.5999L25.1833 18.3333H8.33332V19.9999H25.1833L25.5999 21.6666H6.66665V16.6666ZM1.66666 19.1666C1.66666 17.7859 2.78593 16.6666 4.16666 16.6666H4.99999V21.6666H4.16666C2.78593 21.6666 1.66666 20.5473 1.66666 19.1666Z" fill="white"/>
<path d="M19.1667 35.8333H44.1666C44.6268 35.8333 44.9999 35.4601 44.9999 34.9999V9.99999C44.9998 9.53979 44.6267 9.16677 44.1664 9.16687C43.9455 9.16687 43.7337 9.25468 43.5774 9.41083L18.5775 34.4108C18.2521 34.7363 18.2522 35.2639 18.5777 35.5893C18.734 35.7455 18.9457 35.8333 19.1667 35.8333ZM43.3333 12.0117V14.1667H41.6666V15.8333H43.3333V17.5H41.6666V19.1666H43.3333V20.8333H41.6666V22.5H43.3333V24.1666H41.6666V25.8333H43.3333V27.5H41.6666V29.1666H43.3333V30.8333H41.6666V32.4999H43.3333V34.1666H41.6666V32.4999H40V34.1666H38.3333V32.4999H36.6666V34.1666H35V32.4999H33.3333V34.1666H31.6666V32.4999H30V34.1666H28.3333V32.4999H26.6666V34.1666H25V32.4999H23.3333V34.1666H21.1783L43.3333 12.0117Z" fill="white"/>
<path d="M31.2375 30.8333H39.1666C39.6268 30.8333 40 30.4602 40 29.9999V22.0708C39.9999 21.6106 39.6267 21.2376 39.1664 21.2377C38.9455 21.2377 38.7337 21.3255 38.5775 21.4816L30.6483 29.4108C30.3229 29.7363 30.323 30.2639 30.6485 30.5893C30.8048 30.7455 31.0165 30.8333 31.2375 30.8333ZM38.3333 24.0833V29.1666H33.25L38.3333 24.0833Z" fill="white"/>
<path d="M38.3331 5H21.6665V6.66666H38.3331V5Z" fill="white"/>
<path d="M40.8331 8.33331H19.1665V9.99998H40.8331V8.33331Z" fill="white"/>
<path d="M19.1667 25.8333H14.1667V27.4999H19.1667V25.8333Z" fill="white"/>
<path d="M17.5001 29.1666H14.1667V30.8333H17.5001V29.1666Z" fill="white"/>
</g>
<defs>
<clipPath id="clip0_27230_9">
<rect width="50" height="50" fill="white"/>
</clipPath>
</defs>
</svg>
