<?xml version="1.0" standalone="no"?>
<svg viewBox="0 0 200 200" xmlns="http://www.w3.org/2000/svg">
  <path fill="#F1C21B" d="M40.6,-62.1C54.3,-54.4,68.2,-45.9,75.4,-33.5C82.7,-21,83.3,-4.4,78.6,9.6C74,23.7,64,35.2,53.5,45C42.9,54.7,31.8,62.5,19.7,65.3C7.6,68.1,-5.5,65.7,-21.4,64.7C-37.2,63.7,-55.7,64.1,-67.9,55.7C-80.1,47.3,-86,30.3,-84.4,14.6C-82.8,-1,-73.7,-15.3,-64.3,-26.6C-54.9,-38,-45.1,-46.4,-34.3,-55.5C-23.5,-64.5,-11.8,-74.1,0.9,-75.5C13.5,-76.8,26.9,-69.8,40.6,-62.1Z" transform="translate(100 100)" />
</svg>
